<?xml version="1.0" encoding="UTF-8" standalone="no"?>
<svg width="229px" height="39px" viewBox="0 0 229 39" version="1.1" xmlns="http://www.w3.org/2000/svg" xmlns:xlink="http://www.w3.org/1999/xlink">
    <!-- Generator: Sketch 3.6.1 (26313) - http://www.bohemiancoding.com/sketch -->
    <title>Group 9</title>
    <desc>Created with Sketch.</desc>
    <defs></defs>
    <g id="Page-1" stroke="none" stroke-width="1" fill="none" fill-rule="evenodd">
        <g id="Desktop-HD-Copy-23" transform="translate(-556.000000, -415.000000)">
            <g id="Group-9" transform="translate(556.000000, 415.310332)">
                <path d="M150.014149,10.8824301 L150.119517,10.777062 C150.985881,9.91069778 152.039552,9.47752215 153.28056,9.47752215 L157.776265,9.47752215 C158.900197,9.47752215 159.971429,9.69996369 160.989992,10.1448534 C162.008556,10.5897432 162.898322,11.1926768 163.659318,11.9536725 C164.420313,12.7146681 165.023247,13.6044342 165.468137,14.6229976 C165.913026,15.641561 166.135468,16.7245001 166.135468,17.8718473 L166.135468,20.716786 C166.135468,21.8641332 165.913026,22.9470723 165.468137,23.9656357 C165.023247,24.984199 164.420313,25.8739652 163.659318,26.6349608 C162.898322,27.3959564 162.008556,27.9988901 160.989992,28.4437798 C159.971429,28.8886696 158.900197,29.1111111 157.776265,29.1111111 L153.28056,29.1111111 C152.039552,29.1111111 150.985881,28.6779355 150.119517,27.8115712 L150.014149,27.6710804 C149.21803,26.8281314 148.819977,25.8212908 148.819977,24.6505283 L148.819977,13.938105 C148.819977,12.7673425 149.21803,11.7605018 150.014149,10.9175528 L150.014149,10.8824301 Z M151.805407,12.6034424 C151.477593,12.9780864 151.313689,13.4229695 151.313689,13.938105 L151.313689,24.6505283 C151.313689,25.1656638 151.477593,25.6105469 151.805407,25.9851909 L151.875652,26.0554363 C152.226881,26.4534955 152.695179,26.6525222 153.28056,26.6525222 L157.776265,26.6525222 C158.548969,26.6525222 159.298245,26.5003253 160.024118,26.1959271 C160.749991,25.8915288 161.382193,25.4583532 161.920744,24.8963872 L161.955867,24.8963872 C162.494417,24.3578364 162.915886,23.7256342 163.220284,22.9997614 C163.524682,22.2738887 163.676879,21.5129045 163.676879,20.716786 L163.676879,17.8718473 C163.676879,17.0757288 163.524682,16.3147446 163.220284,15.5888718 C162.915886,14.8629991 162.494417,14.2307968 161.955867,13.6922461 L161.920744,13.6922461 C161.382193,13.1302801 160.749991,12.6971045 160.024118,12.3927062 C159.298245,12.088308 158.548969,11.9361111 157.776265,11.9361111 L153.28056,11.9361111 C152.695179,11.9361111 152.226881,12.1351378 151.875652,12.533197 L151.805407,12.6034424 Z M177.560799,14.2542093 C178.403748,14.2542093 179.199855,14.4181136 179.949143,14.7459271 C180.698431,15.0737406 181.359901,15.5244774 181.933575,16.098151 C182.507249,16.6718246 182.957985,17.3332955 183.285799,18.0825835 C183.613612,18.8318715 183.777517,19.6279781 183.777517,20.4709271 L183.777517,22.8943933 C183.777517,23.7373423 183.613612,24.5393026 183.285799,25.3002982 C182.957985,26.0612939 182.507249,26.7227647 181.933575,27.2847307 C181.359901,27.8466967 180.698431,28.2915798 179.949143,28.6193933 C179.199855,28.9472068 178.403748,29.1111111 177.560799,29.1111111 L175.137333,29.1111111 C174.294384,29.1111111 173.492423,28.9472068 172.731428,28.6193933 C171.970432,28.2915798 171.308961,27.8466967 170.746995,27.2847307 C170.185029,26.7227647 169.740146,26.0612939 169.412333,25.3002982 C169.084519,24.5393026 168.920615,23.7373423 168.920615,22.8943933 L168.920615,20.4709271 C168.920615,19.6279781 169.084519,18.8318715 169.412333,18.0825835 C169.740146,17.3332955 170.185029,16.6718246 170.746995,16.098151 C171.308961,15.5244774 171.970432,15.0737406 172.731428,14.7459271 C173.492423,14.4181136 174.294384,14.2542093 175.137333,14.2542093 L177.560799,14.2542093 Z M175.137333,16.7127982 C174.622197,16.7127982 174.136338,16.8123115 173.679741,17.0113412 C173.223143,17.2103708 172.82509,17.4737884 172.485569,17.8016019 C172.146048,18.1294154 171.876776,18.5274687 171.677747,18.9957737 C171.478717,19.4640787 171.379204,19.9557916 171.379204,20.4709271 L171.379204,22.8943933 C171.379204,23.4095288 171.478717,23.895388 171.677747,24.3519853 C171.876776,24.8085827 172.146048,25.206636 172.485569,25.5461571 C172.82509,25.8856782 173.223143,26.1549496 173.679741,26.3539792 C174.136338,26.5530088 174.622197,26.6525222 175.137333,26.6525222 L177.560799,26.6525222 C178.075934,26.6525222 178.561794,26.5530088 179.018391,26.3539792 C179.474988,26.1549496 179.873042,25.8856782 180.212563,25.5461571 C180.552084,25.206636 180.821355,24.8085827 181.020385,24.3519853 C181.219415,23.895388 181.318928,23.4095288 181.318928,22.8943933 L181.318928,20.4709271 C181.318928,19.9557916 181.219415,19.4699324 181.020385,19.013335 C180.821355,18.5567377 180.552084,18.1586844 180.212563,17.8191633 C179.873042,17.4796421 179.474988,17.2103708 179.018391,17.0113412 C178.561794,16.8123115 178.075934,16.7127982 177.560799,16.7127982 L175.137333,16.7127982 Z M187.370486,10.7068166 C187.370486,10.3790031 187.493414,10.0921706 187.739274,9.8463105 C187.985134,9.60045037 188.271967,9.47752215 188.59978,9.47752215 C188.951009,9.47752215 189.249549,9.60045037 189.495409,9.8463105 C189.741269,10.0921706 189.864198,10.3790031 189.864198,10.7068166 L189.864198,27.8818166 C189.864198,28.2096301 189.741269,28.4964626 189.495409,28.7423228 C189.249549,28.9881829 188.951009,29.1111111 188.59978,29.1111111 C188.271967,29.1111111 187.985134,28.9881829 187.739274,28.7423228 C187.493414,28.4964626 187.370486,28.2096301 187.370486,27.8818166 L187.370486,10.7068166 Z M192.965449,10.7068166 C192.965449,10.3790031 193.088377,10.0921706 193.334237,9.8463105 C193.580097,9.60045037 193.86693,9.47752215 194.194743,9.47752215 C194.545972,9.47752215 194.844512,9.60045037 195.090372,9.8463105 C195.336232,10.0921706 195.459161,10.3790031 195.459161,10.7068166 L195.459161,27.8818166 C195.459161,28.2096301 195.336232,28.4964626 195.090372,28.7423228 C194.844512,28.9881829 194.545972,29.1111111 194.194743,29.1111111 C193.86693,29.1111111 193.580097,28.9881829 193.334237,28.7423228 C193.088377,28.4964626 192.965449,28.2096301 192.965449,27.8818166 L192.965449,10.7068166 Z M206.392774,14.2542093 C207.235723,14.2542093 208.031829,14.4181136 208.781117,14.7459271 C209.530405,15.0737406 210.191876,15.5244774 210.76555,16.098151 C211.339224,16.6718246 211.78996,17.3332955 212.117774,18.0825835 C212.445587,18.8318715 212.609492,19.6279781 212.609492,20.4709271 L212.609492,22.8943933 C212.609492,23.7373423 212.445587,24.5393026 212.117774,25.3002982 C211.78996,26.0612939 211.339224,26.7227647 210.76555,27.2847307 C210.191876,27.8466967 209.530405,28.2915798 208.781117,28.6193933 C208.031829,28.9472068 207.235723,29.1111111 206.392774,29.1111111 L202.880504,29.1111111 C202.178046,29.1111111 201.522429,28.9823292 200.913633,28.7247614 C200.304836,28.4671937 199.772147,28.1101165 199.31555,27.6535191 C198.858953,27.1969217 198.501875,26.6642328 198.244308,26.0554363 C197.98674,25.4466398 197.857958,24.7910226 197.857958,24.0885651 C197.857958,23.3861076 197.98674,22.7304904 198.244308,22.1216939 C198.501875,21.5128974 198.858953,20.9802085 199.31555,20.5236111 C199.772147,20.0670137 200.304836,19.7099365 200.913633,19.4523688 C201.522429,19.194801 202.178046,19.0660191 202.880504,19.0660191 L209.869921,19.0660191 C209.612353,18.3635616 209.155763,17.7957503 208.500136,17.3625682 C207.844509,16.929386 207.142062,16.7127982 206.392774,16.7127982 L200.843387,16.7127982 C200.492159,16.7127982 200.199472,16.58987 199.96532,16.3440099 C199.731167,16.0981498 199.614093,15.8113172 199.614093,15.4835037 C199.614093,15.1088597 199.713606,14.8103198 199.912636,14.5878749 C200.111665,14.36543 200.375083,14.2542093 200.702897,14.2542093 L206.392774,14.2542093 Z M205.584952,26.6525222 L206.392774,26.6525222 C206.907909,26.6525222 207.393769,26.5471551 207.850366,26.3364179 C208.306963,26.1256806 208.705017,25.8505555 209.044538,25.5110344 C209.384059,25.1715133 209.65333,24.77346 209.85236,24.3168626 C210.051389,23.8602653 210.150903,23.3861136 210.150903,22.8943933 L210.150903,21.524608 L202.880504,21.524608 C202.178046,21.524608 201.575113,21.7763182 201.071685,22.2797461 C200.568257,22.783174 200.316547,23.3861076 200.316547,24.0885651 C200.316547,24.7910226 200.568257,25.3939562 201.071685,25.8973841 C201.575113,26.400812 202.178046,26.6525222 202.880504,26.6525222 L205.584952,26.6525222 Z" id="-Dolla" fill="#3A3D42"></path>
                <path d="M14.068454,16.0396321 L14.068454,24.8905524 L15.5604663,24.8905524 L15.5604663,22.2226321 L17.5961779,22.2226321 C19.8215522,22.2226321 21.0986135,21.0593683 21.0986135,19.0615892 C21.0986135,17.1396751 19.8215522,16.0396321 17.5961779,16.0396321 L14.068454,16.0396321 Z M15.5604663,17.3799143 L17.5329571,17.3799143 C18.8985276,17.3799143 19.6698221,17.9362579 19.6698221,19.0995217 C19.6698221,20.300718 18.8985276,20.8823499 17.5329571,20.8823499 L15.5604663,20.8823499 L15.5604663,17.3799143 Z M25.3273436,18.1132763 C23.2410552,18.1132763 21.8122638,19.491491 21.8122638,21.5272027 C21.8122638,23.5502702 23.2410552,24.941129 25.3273436,24.941129 C27.4009877,24.941129 28.8297792,23.5502702 28.8297792,21.5272027 C28.8297792,19.491491 27.4009877,18.1132763 25.3273436,18.1132763 L25.3273436,18.1132763 Z M25.3273436,19.3650493 C26.5285399,19.3650493 27.3756994,20.2501413 27.3756994,21.5398468 C27.3756994,22.8421965 26.5285399,23.7272886 25.3273436,23.7272886 C24.1135031,23.7272886 23.2663436,22.8421965 23.2663436,21.5398468 C23.2663436,20.2501413 24.1135031,19.3650493 25.3273436,19.3650493 L25.3273436,19.3650493 Z M37.8759387,24.8905524 L40.328908,18.163853 L38.8495399,18.163853 L37.1299325,23.4491168 L35.4229693,18.163853 L33.9183129,18.163853 L32.2239939,23.4491168 L30.4790982,18.163853 L28.9870859,18.163853 L31.4653436,24.8905524 L32.9573558,24.8905524 L34.664319,19.9087487 L36.3712822,24.8905524 L37.8759387,24.8905524 Z M43.8116319,18.1132763 C41.8138528,18.1259205 40.4103497,19.5041352 40.4103497,21.5398468 C40.4103497,23.5629143 41.7759203,24.941129 43.8495644,24.941129 C45.0128282,24.941129 45.9737853,24.5238714 46.6312822,23.8031536 L45.8599877,22.9812824 C45.366865,23.4870493 44.6967239,23.7652211 43.963362,23.7652211 C42.9012515,23.7652211 42.1046687,23.1203683 41.8770736,22.0835462 L46.9600307,22.0835462 C47.1370491,19.6558652 46.176092,18.1132763 43.8116319,18.1132763 L43.8116319,18.1132763 Z M41.8517853,21.0214358 C42.0161595,19.9466812 42.7621657,19.2765401 43.8242761,19.2765401 C44.924319,19.2765401 45.6450368,19.934037 45.6956135,21.0214358 L41.8517853,21.0214358 Z M49.8864111,18.163853 L48.4323313,18.163853 L48.4323313,24.8905524 L49.8864111,24.8905524 L49.8864111,21.3754726 C50.0002086,20.224853 50.8600123,19.4282702 52.2129387,19.5041352 L52.2129387,18.1132763 C51.1508282,18.1132763 50.3416012,18.5937548 49.8864111,19.5041352 L49.8864111,18.163853 Z M56.1382086,18.1132763 C54.1404295,18.1259205 52.7369264,19.5041352 52.7369264,21.5398468 C52.7369264,23.5629143 54.1024969,24.941129 56.1761411,24.941129 C57.3394049,24.941129 58.300362,24.5238714 58.9578589,23.8031536 L58.1865644,22.9812824 C57.6934417,23.4870493 57.0233006,23.7652211 56.2899387,23.7652211 C55.2278282,23.7652211 54.4312454,23.1203683 54.2036503,22.0835462 L59.2866074,22.0835462 C59.4636258,19.6558652 58.5026687,18.1132763 56.1382086,18.1132763 L56.1382086,18.1132763 Z M54.178362,21.0214358 C54.3427362,19.9466812 55.0887423,19.2765401 56.1508528,19.2765401 C57.2508957,19.2765401 57.9716135,19.934037 58.0221902,21.0214358 L54.178362,21.0214358 Z M67.1695031,15.5085769 L65.7154233,15.5085769 L65.7154233,19.3271168 C65.2223006,18.5431781 64.4130736,18.1006321 63.3256749,18.1006321 C61.4290491,18.1006321 60.1266994,19.4788468 60.1266994,21.5019143 C60.1266994,23.5502702 61.4164049,24.9537732 63.3509632,24.9537732 C64.4257178,24.9537732 65.2349448,24.5238714 65.7154233,23.7399327 L65.7154233,24.8905524 L67.1695031,24.8905524 L67.1695031,15.5085769 Z M63.6544233,23.7399327 C62.4279387,23.7399327 61.5934233,22.8295524 61.5807791,21.552491 C61.5934233,20.2627855 62.4405828,19.339761 63.6544233,19.339761 C64.8682638,19.339761 65.7154233,20.2501413 65.7154233,21.552491 C65.7154233,22.8295524 64.8682638,23.7399327 63.6544233,23.7399327 L63.6544233,23.7399327 Z M74.5648528,18.1006321 C73.2751472,18.1006321 72.0865951,18.682264 72.0865951,20.0478346 C72.0739509,22.4755156 75.614319,21.7042211 75.614319,23.0824358 C75.614319,23.5882027 75.1338405,23.8031536 74.5142761,23.8031536 C73.7809141,23.8031536 72.8452454,23.4870493 72.2636135,22.9686383 L71.7452025,24.0054603 C72.4153436,24.6123806 73.4648098,24.941129 74.4510552,24.941129 C75.8039816,24.941129 77.0304663,24.3215646 77.0304663,22.9433499 C77.0431104,20.5030248 73.4648098,21.1731659 73.4648098,19.934037 C73.4648098,19.4535585 73.8820675,19.2638959 74.4510552,19.2638959 C75.0453313,19.2638959 75.7913374,19.491491 76.3856135,19.858172 L76.9166687,18.7834174 C76.3097485,18.3535156 75.4120123,18.1006321 74.5648528,18.1006321 L74.5648528,18.1006321 Z M81.2212638,18.1132763 C79.2234847,18.1259205 77.8199816,19.5041352 77.8199816,21.5398468 C77.8199816,23.5629143 79.1855521,24.941129 81.2591963,24.941129 C82.4224601,24.941129 83.3834172,24.5238714 84.0409141,23.8031536 L83.2696196,22.9812824 C82.7764969,23.4870493 82.1063558,23.7652211 81.3729939,23.7652211 C80.3108834,23.7652211 79.5143006,23.1203683 79.2867055,22.0835462 L84.3696626,22.0835462 C84.546681,19.6558652 83.5857239,18.1132763 81.2212638,18.1132763 L81.2212638,18.1132763 Z M79.2614172,21.0214358 C79.4257914,19.9466812 80.1717975,19.2765401 81.233908,19.2765401 C82.3339509,19.2765401 83.0546687,19.934037 83.1052454,21.0214358 L79.2614172,21.0214358 Z M88.5983926,18.1132763 C86.6006135,18.1132763 85.2097546,19.5041352 85.2097546,21.5398468 C85.2097546,23.5629143 86.6006135,24.941129 88.5983926,24.941129 C89.875454,24.941129 90.8490552,24.4859389 91.4559755,23.689356 L90.6467485,22.880129 C90.1915583,23.4111843 89.508773,23.689356 88.6616135,23.689356 C87.4983497,23.689356 86.6638344,22.8169082 86.6638344,21.5398468 C86.6638344,20.2627855 87.4983497,19.3903376 88.6616135,19.3903376 C89.4708405,19.3776935 90.1156933,19.6685094 90.5835276,20.1489879 L91.3801104,19.2133192 C90.760546,18.5052456 89.8122331,18.1132763 88.5983926,18.1132763 L88.5983926,18.1132763 Z M99.035411,18.163853 L97.5813313,18.163853 L97.5813313,21.476626 C97.5813313,22.652534 96.898546,23.5502702 95.7352822,23.5755585 C94.761681,23.5755585 94.1674049,22.9559941 94.1674049,21.9444603 L94.1674049,18.163853 L92.7133252,18.163853 L92.7133252,22.3490738 C92.7133252,23.9548837 93.6363497,24.941129 95.1789386,24.941129 C96.2789816,24.9284849 97.1261411,24.5112272 97.5813313,23.5755585 L97.5813313,24.8905524 L99.035411,24.8905524 L99.035411,18.163853 Z M102.594,18.163853 L101.13992,18.163853 L101.13992,24.8905524 L102.594,24.8905524 L102.594,21.3754726 C102.707798,20.224853 103.567601,19.4282702 104.920528,19.5041352 L104.920528,18.1132763 C103.858417,18.1132763 103.04919,18.5937548 102.594,19.5041352 L102.594,18.163853 Z M108.845798,18.1132763 C106.848018,18.1259205 105.444515,19.5041352 105.444515,21.5398468 C105.444515,23.5629143 106.810086,24.941129 108.88373,24.941129 C110.046994,24.941129 111.007951,24.5238714 111.665448,23.8031536 L110.894153,22.9812824 C110.401031,23.4870493 109.73089,23.7652211 108.997528,23.7652211 C107.935417,23.7652211 107.138834,23.1203683 106.911239,22.0835462 L111.994196,22.0835462 C112.171215,19.6558652 111.210258,18.1132763 108.845798,18.1132763 L108.845798,18.1132763 Z M106.885951,21.0214358 C107.050325,19.9466812 107.796331,19.2765401 108.858442,19.2765401 C109.958485,19.2765401 110.679202,19.934037 110.729779,21.0214358 L106.885951,21.0214358 Z M114.983798,24.8905524 L114.983798,15.5085769 L113.529718,15.5085769 L113.529718,24.8905524 L114.983798,24.8905524 Z M122.854049,18.163853 L121.399969,18.163853 L119.528632,23.2594542 L117.518209,18.163853 L116.013552,18.163853 L118.79527,24.789399 L118.567675,25.2951659 C118.34008,25.8009327 117.986043,26.041172 117.543497,26.041172 C117.240037,26.041172 116.987153,25.9400186 116.671049,25.7124235 L116.051485,26.8377548 C116.519319,27.2297241 116.999798,27.4067425 117.606718,27.4067425 C118.618252,27.4067425 119.376902,26.8756873 119.794159,25.8135769 L122.854049,18.163853 Z M130.906896,18.1132763 C129.857429,18.1132763 129.048202,18.5431781 128.55508,19.3271168 L128.55508,15.5085769 L127.101,15.5085769 L127.101,24.8905524 L128.55508,24.8905524 L128.55508,23.7272886 C129.048202,24.5112272 129.857429,24.941129 130.932184,24.941129 C132.854098,24.941129 134.118515,23.5629143 134.118515,21.552491 C134.118515,19.5041352 132.816166,18.1132763 130.906896,18.1132763 L130.906896,18.1132763 Z M130.603436,23.7020002 C129.402239,23.7020002 128.55508,22.804264 128.55508,21.5019143 C128.55508,20.2374971 129.402239,19.3271168 130.603436,19.3271168 C131.804632,19.3271168 132.651791,20.2501413 132.651791,21.5019143 C132.651791,22.7916198 131.804632,23.7020002 130.603436,23.7020002 L130.603436,23.7020002 Z M141.040454,18.163853 L139.586374,18.163853 L137.715037,23.2594542 L135.704613,18.163853 L134.199957,18.163853 L136.981675,24.789399 L136.75408,25.2951659 C136.526485,25.8009327 136.172448,26.041172 135.729902,26.041172 C135.426442,26.041172 135.173558,25.9400186 134.857454,25.7124235 L134.23789,26.8377548 C134.705724,27.2297241 135.186202,27.4067425 135.793123,27.4067425 C136.804656,27.4067425 137.563307,26.8756873 137.980564,25.8135769 L141.040454,18.163853 Z" id="Powered-securely-by" fill="#3A3D42"></path>
                <g id="Group-8" stroke="#3A3D42">
                    <rect id="Rectangle-810" x="0" y="0" width="229" height="38" rx="4"></rect>
                </g>
            </g>
        </g>
    </g>
</svg>