<?xml version="1.0" encoding="UTF-8" standalone="no"?>
<svg width="196px" height="26px" viewBox="0 0 196 26" version="1.1" xmlns="http://www.w3.org/2000/svg" xmlns:xlink="http://www.w3.org/1999/xlink">
    <!-- Generator: Sketch 3.6.1 (26313) - http://www.bohemiancoding.com/sketch -->
    <title>Group 7</title>
    <desc>Created with Sketch.</desc>
    <defs>
        <path id="path-1" d="M27.0847663,9.36760716 C27.0847663,4.209371 22.8428871,0.0220547037 17.6189225,0.0220547037 L9.5006813,0.0220547037 C4.2761637,0.0220547037 0.0348374904,4.209371 0.0348374904,9.36760716 L0.0348374904,15.7660357 C0.0348374904,20.9242719 4.2761637,25.1115882 9.5006813,25.1115882 L17.6189225,25.1115882 C22.8428871,25.1115882 27.0847663,20.9242719 27.0847663,15.7660357 L27.0847663,9.36760716 L27.0847663,9.36760716 Z"></path>
        <path d="M72.4645864,33.7159418 C72.4645864,31.5764179 72.2505777,29.48885 71.8074791,27.3340057 L71.6351231,26.5047071 L71.6121423,26.5047071 C69.632921,18.4035582 64.4399785,11.0824164 57.2591968,6.31711311 C56.7643915,5.98739195 56.0799946,6.09463459 55.7252285,6.55224759 C55.3726168,7.00986058 55.4846482,7.64732148 55.9780173,7.97437822 C62.9498173,12.6024642 67.9294692,19.801043 69.6451295,27.7243423 L69.6896548,27.9308343 C70.0788921,29.8831832 70.2670474,31.776915 70.2670474,33.7159418 C70.2670474,34.2781331 70.758262,34.73508 71.3658169,34.73508 C71.9733718,34.73508 72.4645864,34.2781331 72.4645864,33.7159418 L72.4645864,33.7159418 Z M8.93703912,14.7113474 C14.0064598,8.41067591 21.3919142,4.11630767 29.7353807,2.61890736 C31.8481779,2.23456573 34.0277631,2.04072966 36.2102209,2.04072966 C41.4132175,2.04072966 46.4294951,3.12248148 51.1254779,5.25401218 C51.6734263,5.50113651 52.3312517,5.29331227 52.596249,4.78707373 C52.8619645,4.2815013 52.6371836,3.67068453 52.0921077,3.42289409 C47.0937839,1.1528139 41.7514662,0.00178733015 36.2102209,0.00178733015 C33.8862876,0.00178733015 31.5652268,0.208945469 29.315263,0.617932921 C20.4353385,2.21191822 12.5730325,6.78405155 7.17541722,13.4923783 C6.81131518,13.9433303 6.91257432,14.5814573 7.39804371,14.9178394 C7.59625311,15.0543906 7.82534295,15.121001 8.05443279,15.121001 C8.39052698,15.121001 8.72159412,14.979121 8.93703912,14.7113474 L8.93703912,14.7113474 Z M2.2668621,42.2274103 C2.85718139,42.0955219 3.22128343,41.5453205 3.08052603,40.9977836 C3.05826338,40.9131884 3.03600073,40.8419154 3.01517438,40.7759712 L3.01732883,40.7759712 L2.78680269,39.5596665 C1.31890413,32.6701596 2.4736893,25.408301 5.9911879,19.11096 C6.27054824,18.6113825 6.11686415,17.9952369 5.57825166,17.7367888 C5.03892103,17.4776746 4.48881814,17.673509 4.21017595,18.1730865 C0.482259402,24.8447775 -1.16661295,32.5362728 1.03092599,39.8440926 L1.03092599,39.8494214 C1.03092599,40.6207691 0.969165088,40.903863 1.08765983,41.2242587 C1.11279508,41.2935334 0.91530384,41.368137 0.942593539,41.4747136 C1.06396089,41.9409859 1.51424092,42.2567189 2.01120071,42.2567189 C2.09522426,42.2547206 2.18140225,42.244729 2.2668621,42.2274103 L2.2668621,42.2274103 Z M28.2689184,65.8587586 C37.0540471,54.9986097 39.7478277,45.3141332 37.2817007,33.4741463 C37.1667967,32.9219467 36.5872497,32.5595864 35.9940578,32.6668291 C35.3979933,32.7740717 35.0094741,33.3082866 35.12366,33.8618185 C37.4949912,45.2268737 34.9979837,54.1420008 26.5116054,64.6344606 C26.1467852,65.0847465 26.2458899,65.7242057 26.7313593,66.0605879 C26.9295687,66.1978052 27.1615312,66.2644155 27.3899029,66.2644155 C27.7238426,66.2670799 28.0534734,66.1265321 28.2689184,65.8587586 L28.2689184,65.8587586 Z M33.079087,66.6600809 C41.66457,55.4029344 44.211848,45.2468568 41.5963458,32.7014665 C41.3169854,31.3619326 40.4918311,30.204245 39.2745669,29.4408906 C38.0601753,28.6795345 36.5973038,28.4031016 35.1588493,28.6628819 C33.7175223,28.9219961 32.4715321,29.6853505 31.6492504,30.8143957 C30.828405,31.9434408 30.5296546,33.3016256 30.8090149,34.638495 C31.7878533,39.3365218 31.7914441,43.5809323 30.8197872,47.6141881 C30.6876476,48.1637233 31.0603674,48.7079297 31.6528411,48.8304928 C32.2481875,48.9537219 32.8334797,48.6073481 32.9649012,48.0578129 C34.003346,43.7467921 34.0047823,39.2286131 32.9670556,34.2488245 C32.8004448,33.4455039 32.9792642,32.6301934 33.471915,31.9521002 C33.9638478,31.2746731 34.7114419,30.8170601 35.5775308,30.6605258 C36.4421834,30.5059898 37.31689,30.6711835 38.044376,31.1267982 C38.7761708,31.5844111 39.2709761,32.279823 39.4411777,33.0844759 C41.9317218,45.0317054 39.4928845,54.7215107 31.2865847,65.4797458 C30.9361275,65.9393571 31.0539041,66.5741536 31.5494275,66.9012103 C31.7426099,67.0277699 31.9638001,67.0890514 32.183554,67.0890514 C32.5253934,67.0890514 32.8650783,66.9398443 33.079087,66.6600809 L33.079087,66.6600809 Z M23.8393694,64.5192247 C27.1371141,60.5945439 29.5220902,56.9549552 31.1285917,53.3879718 C31.3627085,52.8684112 31.0977112,52.2709165 30.5375542,52.0537668 C29.9745246,51.8346188 29.3332167,52.080411 29.099818,52.6013038 C27.5701585,55.9977647 25.2821327,59.4854818 22.1057553,63.2642861 C21.7323173,63.708577 21.8177772,64.3480362 22.2975013,64.6937438 C22.4985833,64.8389544 22.7355728,64.9095613 22.9718442,64.9095613 C23.2993206,64.9115596 23.6224881,64.7770067 23.8393694,64.5192247 L23.8393694,64.5192247 Z M19.772486,62.7127525 C27.6549002,53.5864706 30.3371904,46.1947218 29.0294393,37.1996623 C28.9482883,36.6401355 28.3910039,36.2557939 27.7935031,36.3264008 C27.1916935,36.4016705 26.7701394,36.9145701 26.8512904,37.4727647 C28.0865083,45.9629179 25.6203813,52.6839006 18.058262,61.439829 C17.6783607,61.8801233 17.7552027,62.5222469 18.2284636,62.8719512 C18.4309819,63.0224905 18.6737165,63.096428 18.9157331,63.096428 C19.2367461,63.0950958 19.5563229,62.9665379 19.772486,62.7127525 L19.772486,62.7127525 Z M45.8521025,41.7951093 C46.4596574,41.7951093 46.9429724,41.3528166 46.9343546,40.7919576 C46.8869567,37.9223844 46.5451173,34.9582246 45.9102727,31.92479 C45.0111489,27.6151013 40.9327752,24.4877462 36.2080665,24.4877462 C35.5760945,24.4877462 34.9412499,24.545031 34.3214865,24.6556042 C31.7268106,25.1225426 29.4833101,26.4987121 28.0039211,28.5303273 C27.2943889,29.5068348 26.7988654,30.5852561 26.5317136,31.7362827 C26.4038829,32.2864841 26.7809117,32.8286922 27.3748217,32.9472586 C27.970168,33.0624945 28.5525877,32.7147885 28.6804184,32.1652533 C28.8879637,31.2693443 29.2743284,30.4287219 29.8265857,29.6686979 C30.9756257,28.0887008 32.7207302,27.0169405 34.7401679,26.6539142 C35.2220465,26.5673208 35.7168519,26.5193613 36.2080665,26.5193613 C39.8806855,26.5193613 43.0534721,28.9453097 43.7529502,32.2971417 C44.360505,35.2140083 44.6915722,38.0722577 44.7360975,40.8225984 C44.7447153,41.3801269 45.2337754,41.7957754 45.8355851,41.7957754 C45.839894,41.7951093 45.8463573,41.7951093 45.8521025,41.7951093 L45.8521025,41.7951093 Z M38.2576665,66.8146169 C43.0319276,59.9963831 45.7716698,53.3073733 46.6320134,46.3659104 C46.7002377,45.8063836 46.2693477,45.3008111 45.6661017,45.2375313 C45.0607013,45.1742515 44.5177799,45.5745796 44.4495556,46.1334403 C43.6272739,52.7538414 40.998845,59.1557606 36.4134574,65.7035565 C36.0831084,66.1764899 36.2281747,66.8072897 36.7366249,67.1143634 C36.9226257,67.2256026 37.130171,67.2782248 37.3348438,67.2782248 C37.6939188,67.2782248 38.0486849,67.1156956 38.2576665,66.8146169 L38.2576665,66.8146169 Z M43.8463097,66.2011357 C50.8611987,55.0505658 52.8899724,43.9119857 50.2277904,31.1481135 C49.4464432,27.4059449 46.9551809,24.1500318 43.3953115,22.217666 C42.8724983,21.9319076 42.1988736,22.0951029 41.8929417,22.5813584 C41.5862917,23.0676138 41.7622384,23.6917527 42.2857697,23.9761788 C45.2998452,25.6127947 47.4076154,28.3684642 48.0704678,31.5351195 C50.623491,43.7860922 48.6808953,54.4743864 41.9489574,65.1733382 C41.64518,65.6609259 41.8218449,66.2843986 42.3439399,66.5668264 C42.5177322,66.6627453 42.7087601,66.7067081 42.8976335,66.7067081 C43.273226,66.7067081 43.6416369,66.5281924 43.8463097,66.2011357 L43.8463097,66.2011357 Z M16.0704229,60.479308 C23.9643275,51.4542738 26.2042372,44.7652641 24.335611,35.8015114 C23.7215928,32.8573346 24.3787,29.8685289 26.1877198,27.3859618 C27.9967396,24.9013963 30.7371999,23.2208176 33.9078321,22.649967 C34.9915204,22.4528004 36.1161433,22.4041749 37.2048586,22.4847734 C37.8037957,22.5294023 38.3402538,22.1117555 38.3883698,21.5508965 C38.4379222,20.9900375 37.9876421,20.4977871 37.3815235,20.4531582 C36.0945988,20.3565732 34.7674576,20.4171886 33.4884325,20.6476604 C29.741844,21.3204248 26.5015513,23.3080771 24.3657733,26.2429285 C22.2292771,29.1764476 21.4522388,32.7087936 22.1775703,36.1865191 C23.9040029,44.4708464 21.7861786,50.7062398 14.3633804,59.1923963 C13.9813246,59.6306923 14.0524214,60.2728159 14.524246,60.6251846 C14.7274824,60.7783884 14.9723716,60.8549903 15.2151062,60.8549903 C15.5361193,60.8569886 15.8528234,60.7284306 16.0704229,60.479308 L16.0704229,60.479308 Z M49.8320897,64.5591909 C51.4766532,61.5071054 52.8009218,58.3604333 53.7689879,55.2057678 C53.9334443,54.6642258 53.5966319,54.1007024 53.012776,53.9468325 C52.4282019,53.7909643 51.820647,54.1066973 51.6554725,54.6482393 C50.7254683,57.681674 49.4529066,60.7077814 47.8686677,63.6466294 C47.597207,64.1502035 47.8155246,64.7630186 48.358446,65.0148056 C48.5178753,65.0860787 48.6852042,65.1207161 48.8496606,65.1207161 C49.2518246,65.1227144 49.6389074,64.9175545 49.8320897,64.5591909 L49.8320897,64.5591909 Z M55.0788935,49.799007 C56.1625818,43.6575342 55.9873532,37.3015761 54.5424355,30.3734353 C52.8447289,22.2336524 45.1353889,16.3259819 36.2123754,16.3259819 C35.0180919,16.3259819 33.8209359,16.4325584 32.6560967,16.6437132 C27.7561593,17.5223035 23.5190745,20.1221049 20.725471,23.9615245 C17.9311495,27.799612 16.9156854,32.4183725 17.8636434,36.9671922 C18.3426494,39.2652488 18.4719164,41.1936179 18.2693981,43.0387242 C18.2076372,43.5995832 18.647145,44.0984946 19.2511091,44.1571117 C19.8636911,44.2024067 20.3936858,43.8060753 20.4554467,43.2458823 C20.6816639,41.1969485 20.5430609,39.0787398 20.0224022,36.578854 C19.183603,32.5649153 20.0805724,28.489695 22.5466994,25.1025595 C25.0113901,21.7147579 28.7493608,19.4213641 33.0747781,18.6460198 C34.1024507,18.4595109 35.1588493,18.3655903 36.2116572,18.3655903 C44.0854536,18.3655903 50.8870521,23.5785151 52.3851129,30.7617735 C53.7797602,37.4494511 53.9499617,43.5696086 52.9093624,49.4706181 C52.811694,50.0261483 53.2160124,50.5503716 53.817104,50.6396294 C53.8774286,50.6502871 53.9348806,50.6542837 53.9952052,50.6542837 C54.5237636,50.6522854 54.9912792,50.2985845 55.0788935,49.799007 L55.0788935,49.799007 Z M12.7152262,57.8395404 C15.6251699,54.4950356 17.6481984,51.5268791 18.8977793,48.7685451 C19.1333325,48.2483184 18.8704896,47.6514898 18.3103327,47.4330079 C17.7487394,47.2158583 17.1067133,47.4583199 16.8711601,47.9765483 C15.7034482,50.5563665 13.7831152,53.363326 11.0038748,56.5592898 C10.6225371,56.9975858 10.6972247,57.6397094 11.1690493,57.9920781 C11.3722857,58.1432836 11.6164567,58.2178871 11.8577551,58.2178871 C12.1802044,58.2178871 12.4983449,58.087997 12.7152262,57.8395404 L12.7152262,57.8395404 Z M9.71048665,54.7934499 C16.880496,46.3965511 16.6937771,42.0988524 15.7056027,37.3535322 C14.6448952,32.2711637 15.7802903,27.1081967 18.9020882,22.817159 C20.0231204,21.2777942 21.3696516,19.897628 22.9057744,18.7159607 C23.37329,18.3562649 23.4379235,17.7141413 23.0501225,17.2811741 C22.6623215,16.8475408 21.9693068,16.7889237 21.5025093,17.1472873 C19.8055209,18.4521838 18.3175142,19.9762282 17.0801417,21.6761239 C13.6294311,26.4181136 12.3755412,32.1232888 13.5468438,37.739206 C14.4567399,42.1048473 14.5910339,45.7930615 7.98692669,53.5265213 C7.6106161,53.9688139 7.69033075,54.6089392 8.16718234,54.9586435 C8.36970063,55.1078506 8.60956273,55.1791237 8.84870667,55.1791237 C9.17331046,55.1797898 9.49360535,55.0472352 9.71048665,54.7934499 L9.71048665,54.7934499 Z M56.1467825,61.5264224 C60.4420375,51.4755891 61.3023812,41.3301691 58.8570805,29.5967588 C58.2308538,26.5866378 56.9403382,23.7916682 55.0250322,21.2877857 C54.6731388,20.8295066 53.9887418,20.7209318 53.491782,21.0473224 C52.9976949,21.373713 52.8799183,22.0098417 53.2325299,22.469453 C54.9654258,24.7335383 56.1324195,27.2620666 56.6990399,29.985097 C59.0617533,41.3188454 58.2373171,51.1025713 54.104364,60.7770562 C53.8810193,61.2999473 54.1567889,61.8934454 54.721973,62.1006035 C54.8548307,62.1492291 54.9898429,62.1718766 55.1248551,62.1718766 C55.5622084,62.1718766 55.976581,61.9280828 56.1467825,61.5264224 L56.1467825,61.5264224 Z M51.0069831,18.5674197 C51.3940659,18.1331203 51.3265598,17.4896644 50.8568898,17.131967 C46.7332726,13.980632 41.5324304,12.2441006 36.2102209,12.2441006 C34.7329864,12.2441006 33.2550337,12.3759891 31.8187338,12.6371016 C30.0607026,12.9528346 28.3371427,13.4597392 26.6983244,14.1444935 C26.1460671,14.3756313 25.8983054,14.979121 26.1482215,15.4920205 C26.3967014,16.0049201 27.045909,16.2340597 27.601039,16.0029218 C29.0847368,15.3827796 30.6452767,14.9245005 32.2388515,14.638076 C33.5372667,14.4022755 34.8737438,14.283043 36.2102209,14.283043 C41.0225439,14.283043 45.7285808,15.8537146 49.4586518,18.7046369 C49.6633245,18.8618373 49.9089318,18.9384392 50.1566935,18.9384392 C50.4741158,18.9384392 50.7872292,18.8118796 51.0069831,18.5674197 L51.0069831,18.5674197 Z M62.8112143,32.9825621 C63.4115877,32.8973008 63.8238058,32.376408 63.7297282,31.8195456 C63.56599,30.8277178 63.3835799,29.8298949 63.1731619,28.8220806 C60.6761544,16.8515374 49.3380026,8.16421767 36.2102209,8.16421767 C34.4529079,8.16421767 32.6934405,8.32075196 30.9849617,8.63115611 C23.7797629,9.92539491 17.5483755,13.7468298 13.4391213,19.3920556 C11.2480458,22.4021766 9.79953724,25.7300289 9.13381221,29.282358 C9.02896232,29.8372221 9.43040815,30.365442 10.0279089,30.462027 C10.6325912,30.558612 11.1949027,30.1869263 11.2997526,29.6320623 C11.9116163,26.3641593 13.2445027,23.3034144 15.2603497,20.5324245 C19.0406912,15.3388168 24.7729643,11.8231233 31.4036431,10.6314644 C32.9771097,10.3477044 34.5936653,10.2024939 36.2102209,10.2024939 C48.2873491,10.2024939 58.7184776,18.1964001 61.0158394,29.2090866 C61.219794,30.1929213 61.3978952,31.1654321 61.5573245,32.1326142 C61.6399117,32.6361883 62.1088637,32.9958841 62.6417309,32.9958841 C62.6984648,32.995218 62.7544805,32.9912214 62.8112143,32.9825621 L62.8112143,32.9825621 Z M62.6015145,56.5339779 C64.3717542,50.3525389 64.9620735,44.0531996 64.4105343,37.2755981 C64.3638546,36.7134069 63.8367325,36.2957601 63.2334865,36.3357263 C62.6266498,36.3770247 62.172779,36.8666106 62.2187406,37.4274697 C62.7530442,43.9745994 62.1835512,50.0527924 60.477945,56.0084224 C60.3221065,56.5519627 60.6725637,57.1114895 61.2585741,57.2567 C61.3526517,57.2786814 61.449602,57.2900052 61.5422433,57.2900052 C62.0277127,57.2913374 62.4715294,56.9895926 62.6015145,56.5339779 L62.6015145,56.5339779 Z M7.07487622,51.2950751 C12.6972724,44.4069005 12.0624278,41.3568133 11.3895213,38.125546 C11.1633041,37.0451263 11.0182378,35.9320677 10.9564769,34.8123479 C10.9270327,34.2488245 10.420737,33.8165234 9.80384614,33.8464981 C9.19844571,33.8744744 8.73093007,34.3540688 8.76181052,34.915594 C8.82788032,36.1285681 8.98587332,37.339544 9.23148061,38.512552 C9.85770739,41.5220069 10.3532309,43.8986636 5.32187212,50.0627839 C4.95633378,50.5117376 5.05041143,51.1518629 5.53516266,51.4902434 C5.73409021,51.629459 5.96748895,51.6967354 6.19801509,51.6967354 C6.52980038,51.7000659 6.85871308,51.5601842 7.07487622,51.2950751 L7.07487622,51.2950751 Z M4.84430238,47.2118616 C7.9280384,42.998758 7.53233776,41.0996974 7.07487622,38.9022225 C5.56819756,31.68033 7.18259872,24.3452 11.6193293,18.2470239 C16.056778,12.149514 22.7872796,8.02233766 30.5705891,6.62485285 C33.6464255,6.06599215 36.8673281,5.96607665 40.0580685,6.3557471 C40.6634689,6.42169133 41.2128537,6.03535139 41.2896957,5.4778229 C41.3686922,4.9196283 40.9471382,4.40739483 40.3438922,4.33412346 C36.9211894,3.91647667 33.4553976,4.0237193 30.1519077,4.62387841 C21.7940782,6.12527535 14.5644624,10.5581931 9.79810094,17.1079872 C5.03317583,23.6557831 3.29884362,31.5344534 4.91755368,39.2905607 C5.32761732,41.2575639 5.59835986,42.5557993 3.02738293,46.06683 C2.68554354,46.5331023 2.81768314,47.1678988 3.31966997,47.4842979 C3.50854342,47.6035304 3.72327026,47.6601492 3.93656081,47.6601492 C4.2855817,47.6594831 4.63101184,47.5036149 4.84430238,47.2118616 L4.84430238,47.2118616 Z M67.594501,49.3766975 C67.5592687,49.3766975 67.5218794,49.3746992 67.480895,49.3727009 C66.8769139,49.3134177 66.4383086,48.8145063 66.4972687,48.2536473 C67.1860947,41.9936081 66.7999782,35.5117564 65.3245388,28.4324101 C63.2868217,18.6833216 55.6931978,10.6747612 45.5074885,7.53008729 C44.9322684,7.3515716 44.6194925,6.7747261 44.8121912,6.24051122 C45.0048899,5.70762855 45.6232515,5.41654139 46.2042238,5.59638929 C57.1405953,8.97220103 65.2972158,17.5755918 67.4844901,28.0460702 C69.0037901,35.3245814 69.3978159,42.0022674 68.6881381,48.4614715 C68.6334922,48.9863609 68.1531834,49.3766975 67.594501,49.3766975 L67.594501,49.3766975 Z" id="path-3"></path>
    </defs>
    <g id="Page-1" stroke="none" stroke-width="1" fill="none" fill-rule="evenodd">
        <g id="Desktop-HD-Copy-23" transform="translate(-391.000000, -41.000000)">
            <g id="Group-7" transform="translate(391.000000, 41.000000)">
                <g id="Group-5" transform="translate(35.000000, 5.000000)" fill="#35383C">
                    <path d="M1.28360936,1.43 L1.37360936,1.34 C2.11361306,0.5999963 3.01360406,0.23 4.07360936,0.23 L7.91360936,0.23 C8.87361416,0.23 9.78860501,0.4199981 10.6586094,0.8 C11.5286137,1.1800019 12.2886061,1.69499675 12.9386094,2.345 C13.5886126,2.99500325 14.1036075,3.75499565 14.4836094,4.625 C14.8636113,5.49500435 15.0536094,6.4199951 15.0536094,7.4 L15.0536094,9.83 C15.0536094,10.8100049 14.8636113,11.7349957 14.4836094,12.605 C14.1036075,13.4750044 13.5886126,14.2349968 12.9386094,14.885 C12.2886061,15.5350033 11.5286137,16.0499981 10.6586094,16.43 C9.78860501,16.8100019 8.87361416,17 7.91360936,17 L4.07360936,17 C3.01360406,17 2.11361306,16.6300037 1.37360936,15.89 L1.28360936,15.77 C0.603605955,15.0499964 0.263609355,14.190005 0.263609355,13.19 L0.263609355,4.04 C0.263609355,3.039995 0.603605955,2.1800036 1.28360936,1.46 L1.28360936,1.43 Z M2.81360936,2.9 C2.53360796,3.2200016 2.39360936,3.5999978 2.39360936,4.04 L2.39360936,13.19 C2.39360936,13.6300022 2.53360796,14.0099984 2.81360936,14.33 L2.87360936,14.39 C3.17361086,14.7300017 3.57360686,14.9 4.07360936,14.9 L7.91360936,14.9 C8.57361266,14.9 9.21360626,14.7700013 9.83360936,14.51 C10.4536125,14.2499987 10.9936071,13.8800024 11.4536094,13.4 L11.4836094,13.4 C11.9436117,12.9399977 12.3036081,12.4000031 12.5636094,11.78 C12.8236107,11.1599969 12.9536094,10.5100034 12.9536094,9.83 L12.9536094,7.4 C12.9536094,6.7199966 12.8236107,6.0700031 12.5636094,5.45 C12.3036081,4.8299969 11.9436117,4.2900023 11.4836094,3.83 L11.4536094,3.83 C10.9936071,3.3499976 10.4536125,2.9800013 9.83360936,2.72 C9.21360626,2.4599987 8.57361266,2.33 7.91360936,2.33 L4.07360936,2.33 C3.57360686,2.33 3.17361086,2.4999983 2.87360936,2.84 L2.81360936,2.9 Z M24.818808,4.31 C25.5388116,4.31 26.2188048,4.4499986 26.858808,4.73 C27.4988112,5.0100014 28.0638056,5.39499755 28.553808,5.885 C29.0438105,6.37500245 29.4288066,6.9399968 29.708808,7.58 C29.9888094,8.2200032 30.128808,8.8999964 30.128808,9.62 L30.128808,11.69 C30.128808,12.4100036 29.9888094,13.0949968 29.708808,13.745 C29.4288066,14.3950033 29.0438105,14.9599976 28.553808,15.44 C28.0638056,15.9200024 27.4988112,16.2999986 26.858808,16.58 C26.2188048,16.8600014 25.5388116,17 24.818808,17 L22.748808,17 C22.0288044,17 21.3438113,16.8600014 20.693808,16.58 C20.0438048,16.2999986 19.4788104,15.9200024 18.998808,15.44 C18.5188056,14.9599976 18.1388094,14.3950033 17.858808,13.745 C17.5788066,13.0949968 17.438808,12.4100036 17.438808,11.69 L17.438808,9.62 C17.438808,8.8999964 17.5788066,8.2200032 17.858808,7.58 C18.1388094,6.9399968 18.5188056,6.37500245 18.998808,5.885 C19.4788104,5.39499755 20.0438048,5.0100014 20.693808,4.73 C21.3438113,4.4499986 22.0288044,4.31 22.748808,4.31 L24.818808,4.31 Z M22.748808,6.41 C22.3088058,6.41 21.89381,6.49499915 21.503808,6.665 C21.1138061,6.83500085 20.7738095,7.0599986 20.483808,7.34 C20.1938066,7.6200014 19.9638089,7.959998 19.793808,8.36 C19.6238072,8.760002 19.538808,9.1799978 19.538808,9.62 L19.538808,11.69 C19.538808,12.1300022 19.6238072,12.5449981 19.793808,12.935 C19.9638089,13.325002 20.1938066,13.6649986 20.483808,13.955 C20.7738095,14.2450015 21.1138061,14.4749992 21.503808,14.645 C21.89381,14.8150009 22.3088058,14.9 22.748808,14.9 L24.818808,14.9 C25.2588102,14.9 25.6738061,14.8150009 26.063808,14.645 C26.45381,14.4749992 26.7938066,14.2450015 27.083808,13.955 C27.3738095,13.6649986 27.6038072,13.325002 27.773808,12.935 C27.9438089,12.5449981 28.028808,12.1300022 28.028808,11.69 L28.028808,9.62 C28.028808,9.1799978 27.9438089,8.76500195 27.773808,8.375 C27.6038072,7.98499805 27.3738095,7.64500145 27.083808,7.355 C26.7938066,7.06499855 26.45381,6.83500085 26.063808,6.665 C25.6738061,6.49499915 25.2588102,6.41 24.818808,6.41 L22.748808,6.41 Z M33.2040067,1.28 C33.2040067,0.9999986 33.3090056,0.75500105 33.5190067,0.545 C33.7290077,0.33499895 33.9740053,0.23 34.2540067,0.23 C34.5540082,0.23 34.8090056,0.33499895 35.0190067,0.545 C35.2290077,0.75500105 35.3340067,0.9999986 35.3340067,1.28 L35.3340067,15.95 C35.3340067,16.2300014 35.2290077,16.474999 35.0190067,16.685 C34.8090056,16.8950011 34.5540082,17 34.2540067,17 C33.9740053,17 33.7290077,16.8950011 33.5190067,16.685 C33.3090056,16.474999 33.2040067,16.2300014 33.2040067,15.95 L33.2040067,1.28 Z M37.9892053,1.28 C37.9892053,0.9999986 38.0942043,0.75500105 38.3042053,0.545 C38.5142064,0.33499895 38.7592039,0.23 39.0392053,0.23 C39.3392068,0.23 39.5942043,0.33499895 39.8042053,0.545 C40.0142064,0.75500105 40.1192053,0.9999986 40.1192053,1.28 L40.1192053,15.95 C40.1192053,16.2300014 40.0142064,16.474999 39.8042053,16.685 C39.5942043,16.8950011 39.3392068,17 39.0392053,17 C38.7592039,17 38.5142064,16.8950011 38.3042053,16.685 C38.0942043,16.474999 37.9892053,16.2300014 37.9892053,15.95 L37.9892053,1.28 Z M49.464404,4.31 C50.1844076,4.31 50.8644008,4.4499986 51.504404,4.73 C52.1444072,5.0100014 52.7094016,5.39499755 53.199404,5.885 C53.6894065,6.37500245 54.0744026,6.9399968 54.354404,7.58 C54.6344054,8.2200032 54.774404,8.8999964 54.774404,9.62 L54.774404,11.69 C54.774404,12.4100036 54.6344054,13.0949968 54.354404,13.745 C54.0744026,14.3950033 53.6894065,14.9599976 53.199404,15.44 C52.7094016,15.9200024 52.1444072,16.2999986 51.504404,16.58 C50.8644008,16.8600014 50.1844076,17 49.464404,17 L46.464404,17 C45.864401,17 45.3044066,16.8900011 44.784404,16.67 C44.2644014,16.4499989 43.809406,16.145002 43.419404,15.755 C43.0294021,15.3649981 42.7244051,14.9100026 42.504404,14.39 C42.2844029,13.8699974 42.174404,13.310003 42.174404,12.71 C42.174404,12.109997 42.2844029,11.5500026 42.504404,11.03 C42.7244051,10.5099974 43.0294021,10.055002 43.419404,9.665 C43.809406,9.27499805 44.2644014,8.9700011 44.784404,8.75 C45.3044066,8.5299989 45.864401,8.42 46.464404,8.42 L52.434404,8.42 C52.2144029,7.819997 51.8244068,7.33500185 51.264404,6.965 C50.7044012,6.59499815 50.1044072,6.41 49.464404,6.41 L44.724404,6.41 C44.4244025,6.41 44.174405,6.30500105 43.974404,6.095 C43.774403,5.88499895 43.674404,5.6400014 43.674404,5.36 C43.674404,5.0399984 43.7594032,4.78500095 43.929404,4.595 C44.0994049,4.40499905 44.3244026,4.31 44.604404,4.31 L49.464404,4.31 Z M48.774404,14.9 L49.464404,14.9 C49.9044062,14.9 50.3194021,14.8100009 50.709404,14.63 C51.099406,14.4499991 51.4394026,14.2150015 51.729404,13.925 C52.0194055,13.6349986 52.2494032,13.295002 52.419404,12.905 C52.5894049,12.5149981 52.674404,12.1100021 52.674404,11.69 L52.674404,10.52 L46.464404,10.52 C45.864401,10.52 45.3494062,10.7349979 44.919404,11.165 C44.4894019,11.5950022 44.274404,12.109997 44.274404,12.71 C44.274404,13.310003 44.4894019,13.8249979 44.919404,14.255 C45.3494062,14.6850022 45.864401,14.9 46.464404,14.9 L48.774404,14.9 Z M66.5948013,15.95 C66.5948013,16.2300014 66.4948023,16.474999 66.2948013,16.685 C66.0948003,16.8950011 65.8448028,17 65.5448013,17 C65.2647999,17 65.0198024,16.8950011 64.8098013,16.685 C64.5998003,16.474999 64.4948013,16.2300014 64.4948013,15.95 L64.4948013,1.28 C64.4948013,0.9999986 64.5998003,0.75500105 64.8098013,0.545 C65.0198024,0.33499895 65.2647999,0.23 65.5448013,0.23 C65.8448028,0.23 66.0948003,0.33499895 66.2948013,0.545 C66.4948023,0.75500105 66.5948013,0.9999986 66.5948013,1.28 L66.5948013,15.95 Z M69.43,9.23 C69.4900003,8.5499966 69.6699985,7.910003 69.97,7.31 C70.2700015,6.709997 70.6599976,6.18500225 71.14,5.735 C71.6200024,5.28499775 72.1649969,4.93500125 72.775,4.685 C73.385003,4.43499875 74.0399965,4.31 74.74,4.31 L76.81,4.31 C77.4900034,4.31 78.1399969,4.4399987 78.76,4.7 C79.3800031,4.9600013 79.9249976,5.3099978 80.395,5.75 C80.8650023,6.1900022 81.2549984,6.709997 81.565,7.31 C81.8750015,7.910003 82.0599997,8.5499966 82.12,9.23 L82.12,15.95 C82.12,16.2300014 82.020001,16.474999 81.82,16.685 C81.619999,16.8950011 81.3700015,17 81.07,17 C80.7899986,17 80.545001,16.8950011 80.335,16.685 C80.1249989,16.474999 80.02,16.2300014 80.02,15.95 L80.02,9.62 C80.02,9.1799978 79.9350008,8.76500195 79.765,8.375 C79.5949991,7.98499805 79.3650014,7.64500145 79.075,7.355 C78.7849985,7.06499855 78.4450019,6.83500085 78.055,6.665 C77.664998,6.49499915 77.2500022,6.41 76.81,6.41 L74.74,6.41 C74.3199979,6.41 73.9150019,6.4899992 73.525,6.65 C73.134998,6.8100008 72.7950014,7.03499855 72.505,7.325 C72.2149985,7.61500145 71.9800009,7.9499981 71.8,8.33 C71.6199991,8.7100019 71.53,9.1199978 71.53,9.56 L71.53,15.95 C71.53,16.2300014 71.425001,16.474999 71.215,16.685 C71.0049989,16.8950011 70.7600014,17 70.48,17 C70.1999986,17 69.955001,16.8950011 69.745,16.685 C69.5349989,16.474999 69.43,16.2300014 69.43,15.95 L69.43,9.23 Z M84.5051987,5.72 C84.4451984,5.5999994 84.4151987,5.4700007 84.4151987,5.33 C84.4151987,5.0699987 84.5101977,4.83500105 84.7001987,4.625 C84.8901996,4.41499895 85.1251973,4.31 85.4051987,4.31 C85.8452009,4.31 86.1651977,4.5199979 86.3651987,4.94 L90.3551987,14.48 C90.415199,14.6200007 90.515198,14.7399995 90.6551987,14.84 C90.7951994,14.9400005 90.9451979,14.99 91.1051987,14.99 C91.4852006,14.99 91.745198,14.8200017 91.8851987,14.48 L95.8751987,4.94 C95.9551991,4.739999 96.0801978,4.58500055 96.2501987,4.475 C96.4201995,4.36499945 96.6151976,4.31 96.8351987,4.31 C97.1152001,4.31 97.3451978,4.41499895 97.5251987,4.625 C97.7051996,4.83500105 97.7951987,5.0699987 97.7951987,5.33 L97.7951987,5.525 C97.7951987,5.59500035 97.7751989,5.6599997 97.7351987,5.72 L93.7451987,15.26 C93.5251976,15.7800026 93.1752011,16.1999984 92.6951987,16.52 C92.2151963,16.8400016 91.6852016,17 91.1051987,17 C90.5251958,17 90.005201,16.8450016 89.5451987,16.535 C89.0851964,16.2249985 88.7252,15.8000027 88.4651987,15.26 L84.5051987,5.72 Z M107.080397,4.31 C107.800401,4.31 108.480394,4.4499986 109.120397,4.73 C109.760401,5.0100014 110.325395,5.39499755 110.815397,5.885 C111.3054,6.37500245 111.690396,6.9399968 111.970397,7.58 C112.250399,8.2200032 112.390397,8.8999964 112.390397,9.62 L112.390397,11.69 C112.390397,12.4100036 112.250399,13.0949968 111.970397,13.745 C111.690396,14.3950033 111.3054,14.9599976 110.815397,15.44 C110.325395,15.9200024 109.760401,16.2999986 109.120397,16.58 C108.480394,16.8600014 107.800401,17 107.080397,17 L105.010397,17 C104.290394,17 103.605401,16.8600014 102.955397,16.58 C102.305394,16.2999986 101.7404,15.9200024 101.260397,15.44 C100.780395,14.9599976 100.400399,14.3950033 100.120397,13.745 C99.8403959,13.0949968 99.7003973,12.4100036 99.7003973,11.69 L99.7003973,9.62 C99.7003973,8.8999964 99.8403959,8.2200032 100.120397,7.58 C100.400399,6.9399968 100.780395,6.37500245 101.260397,5.885 C101.7404,5.39499755 102.305394,5.0100014 102.955397,4.73 C103.605401,4.4499986 104.290394,4.31 105.010397,4.31 L107.080397,4.31 Z M105.010397,6.41 C104.570395,6.41 104.155399,6.49499915 103.765397,6.665 C103.375395,6.83500085 103.035399,7.0599986 102.745397,7.34 C102.455396,7.6200014 102.225398,7.959998 102.055397,8.36 C101.885396,8.760002 101.800397,9.1799978 101.800397,9.62 L101.800397,11.69 C101.800397,12.1300022 101.885396,12.5449981 102.055397,12.935 C102.225398,13.325002 102.455396,13.6649986 102.745397,13.955 C103.035399,14.2450015 103.375395,14.4749992 103.765397,14.645 C104.155399,14.8150009 104.570395,14.9 105.010397,14.9 L107.080397,14.9 C107.5204,14.9 107.935395,14.8150009 108.325397,14.645 C108.715399,14.4749992 109.055396,14.2450015 109.345397,13.955 C109.635399,13.6649986 109.865396,13.325002 110.035397,12.935 C110.205398,12.5449981 110.290397,12.1300022 110.290397,11.69 L110.290397,9.62 C110.290397,9.1799978 110.205398,8.76500195 110.035397,8.375 C109.865396,7.98499805 109.635399,7.64500145 109.345397,7.355 C109.055396,7.06499855 108.715399,6.83500085 108.325397,6.665 C107.935395,6.49499915 107.5204,6.41 107.080397,6.41 L105.010397,6.41 Z M116.635596,0.92 C116.975598,0.92 117.260595,1.03499885 117.490596,1.265 C117.720597,1.49500115 117.835596,1.7799983 117.835596,2.12 C117.835596,2.4400016 117.720597,2.71499885 117.490596,2.945 C117.260595,3.17500115 116.975598,3.29 116.635596,3.29 C116.315594,3.29 116.040597,3.17500115 115.810596,2.945 C115.580595,2.71499885 115.465596,2.4400016 115.465596,2.12 C115.465596,1.7799983 115.580595,1.49500115 115.810596,1.265 C116.040597,1.03499885 116.315594,0.92 116.635596,0.92 L116.635596,0.92 Z M115.585596,5.36 C115.585596,5.0799986 115.690595,4.83500105 115.900596,4.625 C116.110597,4.41499895 116.355595,4.31 116.635596,4.31 C116.935597,4.31 117.190595,4.41499895 117.400596,4.625 C117.610597,4.83500105 117.715596,5.0799986 117.715596,5.36 L117.715596,15.95 C117.715596,16.2300014 117.610597,16.474999 117.400596,16.685 C117.190595,16.8950011 116.935597,17 116.635596,17 C116.355595,17 116.110597,16.8950011 115.900596,16.685 C115.690595,16.474999 115.585596,16.2300014 115.585596,15.95 L115.585596,5.36 Z M130.990795,5.36 C130.990795,5.6400014 130.890796,5.88499895 130.690795,6.095 C130.490794,6.30500105 130.250796,6.41 129.970795,6.41 L125.620795,6.41 C125.180792,6.41 124.765797,6.49499915 124.375795,6.665 C123.985793,6.83500085 123.645796,7.0599986 123.355795,7.34 C123.065793,7.6200014 122.835796,7.959998 122.665795,8.36 C122.495794,8.760002 122.410795,9.1799978 122.410795,9.62 L122.410795,11.69 C122.410795,12.1300022 122.495794,12.5449981 122.665795,12.935 C122.835796,13.325002 123.065793,13.6649986 123.355795,13.955 C123.645796,14.2450015 123.985793,14.4749992 124.375795,14.645 C124.765797,14.8150009 125.180792,14.9 125.620795,14.9 L130.000795,14.9 C130.280796,14.9 130.515794,14.999999 130.705795,15.2 C130.895796,15.400001 130.990795,15.6499985 130.990795,15.95 C130.990795,16.2300014 130.890796,16.474999 130.690795,16.685 C130.490794,16.8950011 130.250796,17 129.970795,17 L125.620795,17 C124.900791,17 124.215798,16.8600014 123.565795,16.58 C122.915791,16.2999986 122.350797,15.9200024 121.870795,15.44 C121.390792,14.9599976 121.010796,14.3950033 120.730795,13.745 C120.450793,13.0949968 120.310795,12.4100036 120.310795,11.69 L120.310795,9.62 C120.310795,8.8999964 120.450793,8.2200032 120.730795,7.58 C121.010796,6.9399968 121.390792,6.37500245 121.870795,5.885 C122.350797,5.39499755 122.915791,5.0100014 123.565795,4.73 C124.215798,4.4499986 124.900791,4.31 125.620795,4.31 L130.030795,4.31 C130.290796,4.31 130.515794,4.409999 130.705795,4.61 C130.895796,4.810001 130.990795,5.0599985 130.990795,5.36 L130.990795,5.36 Z M135.745993,12.86 L135.805993,12.98 C136.125995,13.6200032 136.540991,14.0999984 137.050993,14.42 C137.560996,14.7400016 138.12599,14.9 138.745993,14.9 L143.725993,14.9 C144.005995,14.9 144.250992,15.004999 144.460993,15.215 C144.670994,15.4250011 144.775993,15.6699986 144.775993,15.95 C144.775993,16.2300014 144.670994,16.474999 144.460993,16.685 C144.250992,16.8950011 144.005995,17 143.725993,17 L138.745993,17 C138.00599,17 137.315997,16.8600014 136.675993,16.58 C136.03599,16.2999986 135.475996,15.9150025 134.995993,15.425 C134.515991,14.9349976 134.135995,14.3500034 133.855993,13.67 C133.575992,12.9899966 133.435993,12.250004 133.435993,11.45 L133.435993,9.62 C133.435993,8.8999964 133.575992,8.2200032 133.855993,7.58 C134.135995,6.9399968 134.515991,6.37500245 134.995993,5.885 C135.475996,5.39499755 136.04099,5.0100014 136.690993,4.73 C137.340997,4.4499986 138.02599,4.31 138.745993,4.31 L140.815993,4.31 C141.535997,4.31 142.21599,4.4499986 142.855993,4.73 C143.495997,5.0100014 144.060991,5.39499755 144.550993,5.885 C145.040996,6.37500245 145.425992,6.9399968 145.705993,7.58 C145.985995,8.2200032 146.125993,8.8999964 146.125993,9.62 L146.125993,11.51 C146.125993,11.8900019 145.995995,12.2099987 145.735993,12.47 C145.475992,12.7300013 145.155995,12.86 144.775993,12.86 L135.745993,12.86 Z M144.025993,10.76 L144.025993,9.62 C144.025993,9.1799978 143.940994,8.76500195 143.770993,8.375 C143.600992,7.98499805 143.370995,7.64500145 143.080993,7.355 C142.790992,7.06499855 142.450995,6.83500085 142.060993,6.665 C141.670991,6.49499915 141.255996,6.41 140.815993,6.41 L138.745993,6.41 C138.305991,6.41 137.890995,6.49499915 137.500993,6.665 C137.110991,6.83500085 136.770995,7.06499855 136.480993,7.355 C136.190992,7.64500145 135.960994,7.98499805 135.790993,8.375 C135.620992,8.76500195 135.535993,9.1799978 135.535993,9.62 L135.535993,10.76 L144.025993,10.76 Z M158.351192,7.28 C158.291192,7.0999991 158.191193,6.9400007 158.051192,6.8 L157.991192,6.74 C157.731191,6.5199989 157.441194,6.41 157.121192,6.41 L152.741192,6.41 C152.38119,6.41 152.071193,6.54499865 151.811192,6.815 C151.551191,7.08500135 151.421192,7.3999982 151.421192,7.76 C151.421192,8.2400024 151.66619,8.61499865 152.156192,8.885 C152.646194,9.15500135 153.191189,9.35499935 153.791192,9.485 C154.391195,9.61500065 154.941189,9.69499985 155.441192,9.725 C155.941194,9.75500015 156.201192,9.77 156.221192,9.77 C156.721194,9.8300003 157.246189,9.93499925 157.796192,10.085 C158.346195,10.2350008 158.84619,10.4549986 159.296192,10.745 C159.746194,11.0350015 160.116191,11.4049978 160.406192,11.855 C160.696193,12.3050023 160.841192,12.8699966 160.841192,13.55 C160.841192,14.0300024 160.751193,14.474998 160.571192,14.885 C160.391191,15.2950021 160.141194,15.6599984 159.821192,15.98 C159.50119,16.3000016 159.136194,16.5499991 158.726192,16.73 C158.31619,16.9100009 157.871194,17 157.391192,17 L152.621192,17 C152.20119,17 151.786194,16.9200008 151.376192,16.76 C150.96619,16.5999992 150.601194,16.3750015 150.281192,16.085 C149.96119,15.7949986 149.701193,15.450002 149.501192,15.05 C149.301191,14.649998 149.201192,14.2100024 149.201192,13.73 C149.201192,13.3899983 149.296191,13.1000012 149.486192,12.86 C149.676193,12.6199988 149.94119,12.5 150.281192,12.5 C150.661194,12.5 150.901191,12.6249988 151.001192,12.875 C151.101192,13.1250013 151.191192,13.3999985 151.271192,13.7 C151.351192,14.0000015 151.471191,14.2749988 151.631192,14.525 C151.791193,14.7750013 152.121189,14.9 152.621192,14.9 L157.391192,14.9 C157.791194,14.9 158.111191,14.7600014 158.351192,14.48 C158.591193,14.1999986 158.711192,13.8900017 158.711192,13.55 C158.711192,13.1299979 158.571193,12.8100011 158.291192,12.59 C158.011191,12.3699989 157.671194,12.2000006 157.271192,12.08 C156.87119,11.9599994 156.461194,11.8800002 156.041192,11.84 C155.62119,11.7999998 155.281193,11.7600002 155.021192,11.72 C154.481189,11.6599997 153.876195,11.5750006 153.206192,11.465 C152.536189,11.3549995 151.916195,11.1550015 151.346192,10.865 C150.776189,10.5749986 150.296194,10.1850025 149.906192,9.695 C149.51619,9.20499755 149.321192,8.560004 149.321192,7.76 C149.321192,7.2799976 149.411191,6.8300021 149.591192,6.41 C149.771193,5.9899979 150.01619,5.62500155 150.326192,5.315 C150.636194,5.00499845 150.99619,4.7600009 151.406192,4.58 C151.816194,4.3999991 152.26119,4.31 152.741192,4.31 L157.121192,4.31 C157.941196,4.31 158.661189,4.5699974 159.281192,5.09 L159.311192,5.06 L159.551192,5.3 C159.831193,5.6200016 160.061191,5.96499815 160.241192,6.335 C160.421193,6.70500185 160.511192,7.1299976 160.511192,7.61 C160.511192,7.9500017 160.421193,8.23499885 160.241192,8.465 C160.061191,8.69500115 159.801194,8.81 159.461192,8.81 C159.201191,8.81 159.006193,8.7600005 158.876192,8.66 C158.746191,8.5599995 158.651192,8.43500075 158.591192,8.285 C158.531192,8.13499925 158.491192,7.9700009 158.471192,7.79 C158.451192,7.6099991 158.411192,7.4400008 158.351192,7.28 L158.351192,7.28 Z" id="Dolla-Invoices"></path>
                </g>
                <g id="Group-2">
                    <g id="dolla">
                        <g id="Group" transform="translate(0.012482, 0.000001)">
                            <g transform="translate(0.037152, 0.026558)" id="Layer1">
                                <g>
                                    <g id="Clipped">
                                        <mask id="mask-2" fill="white">
                                            <use xlink:href="#path-1"></use>
                                        </mask>
                                        <g id="Shape"></g>
                                        <g id="Group" mask="url(#mask-2)">
                                            <g transform="translate(-29.000000, -15.333333)" id="Clipped">
                                                <g>
                                                    <mask id="mask-4" fill="white">
                                                        <use xlink:href="#path-3"></use>
                                                    </mask>
                                                    <g id="Shape"></g>
                                                    <rect id="Rectangle-path" stroke="#FEFEFE" stroke-width="5.64409066" fill="#35383C" mask="url(#mask-4)" x="-3.54728014" y="-3.32872938" width="79.6026164" height="73.9374709"></rect>
                                                </g>
                                            </g>
                                        </g>
                                    </g>
                                </g>
                            </g>
                        </g>
                    </g>
                </g>
            </g>
        </g>
    </g>
</svg>