<?xml version="1.0" encoding="UTF-8" standalone="no"?>
<svg width="955px" height="800px" viewBox="0 0 955 800" version="1.1" xmlns="http://www.w3.org/2000/svg" xmlns:xlink="http://www.w3.org/1999/xlink">
    <!-- Generator: Sketch 3.6.1 (26313) - http://www.bohemiancoding.com/sketch -->
    <title>Group</title>
    <desc>Created with Sketch.</desc>
    <defs></defs>
    <g id="Page-1" stroke="none" stroke-width="1" fill="none" fill-rule="evenodd">
        <g id="Desktop-HD-Copy-23" transform="translate(-164.000000, 0.000000)" stroke="#FFFFFF">
            <g id="Group" transform="translate(165.000000, -24.000000)">
                <path d="M631.977389,940.919346 C625.92891,940.919346 620.12974,937.476682 617.322292,931.562362 C613.420047,923.330865 616.801992,913.422173 624.888311,909.460903 C705.252876,869.969579 776.490525,815.637285 836.639294,747.964669 C842.666094,741.145547 852.942006,740.671077 859.597501,746.795046 C866.263836,752.93005 866.773296,763.390451 860.746495,770.165436 C797.768599,841.026929 723.181524,897.919153 639.023109,939.264219 C636.768479,940.400739 634.351255,940.919346 631.977389,940.919346 Z M367.990523,955.153436 C359.481461,955.153436 352.327346,948.422587 351.774528,939.650415 C351.21087,930.536184 358.00728,922.668815 366.971603,922.084003 C485.079548,914.448352 598.363885,873.390174 694.59758,803.34521 C701.88177,798.048805 712.060126,799.748068 717.273959,807.196139 C722.498631,814.633175 720.807658,824.961166 713.501788,830.27964 C612.33609,903.921746 493.230904,947.087451 369.041961,955.131367 C368.695095,955.142401 368.348229,955.153436 367.990523,955.153436 Z M758.540198,789.066984 C754.052617,789.066984 749.597554,787.191173 746.389041,783.516792 C740.416439,776.69767 741.012615,766.237269 747.722308,760.157436 C825.496217,689.649037 885.53659,600.084612 921.339687,501.1301 C924.428964,492.556544 933.772672,488.120804 942.216697,491.320716 C950.639042,494.476491 954.96403,503.987953 951.853074,512.572543 C914.21809,616.613811 851.110118,710.768454 769.347249,784.873996 C766.247132,787.687711 762.388245,789.066984 758.540198,789.066984 Z M326.128107,846.334369 C257.036693,846.334369 189.376103,833.490585 124.999902,808.167146 C116.631755,804.867927 112.458521,795.279226 115.699552,786.76084 C118.940583,778.242455 128.338489,774.00533 136.728316,777.293515 C197.343186,801.149409 261.058174,813.242868 326.128107,813.242868 C616.010704,813.242868 851.847209,573.172251 851.847209,278.08522 C851.847209,264.612488 851.218514,250.234954 849.928605,234.125054 C849.202354,225.010822 855.868689,217.033111 864.811334,216.282787 C873.851534,215.521429 881.623505,222.318483 882.338917,231.443748 C883.693863,248.458451 884.365916,263.707686 884.365916,278.08522 C884.365916,591.422782 633.939351,846.334369 326.128107,846.334369 Z M825.496217,626.014931 C822.450298,626.014931 819.36102,625.143231 816.618609,623.322591 C809.106788,618.335142 806.982233,608.073357 811.892557,600.415637 C860.497185,524.621866 891.628428,437.087729 901.936858,347.280552 C902.988296,338.199423 911.19385,331.711327 919.973901,332.759573 C928.894866,333.818855 935.279373,342.039317 934.238774,351.120446 C923.355847,445.992311 890.468594,538.458726 839.121555,618.522724 C836.010599,623.377762 830.796766,626.014931 825.496217,626.014931 Z M326.128107,901.505261 C292.221935,901.505261 257.567832,898.503964 223.130521,892.545508 C214.274593,891.022791 208.31283,882.482337 209.808691,873.467414 C211.304551,864.463524 219.737736,858.383692 228.550306,859.917443 C261.199088,865.544874 294.032143,868.402726 326.117267,868.402726 C492.721445,868.402726 651.434416,795.301294 761.553598,667.834466 C767.461164,660.960173 777.758754,660.276054 784.490127,666.333818 C791.232339,672.369514 791.904392,682.818881 785.964308,689.682139 C669.68825,824.299115 502.075993,901.505261 326.128107,901.505261 Z M326.128107,735.992586 C211.954926,735.992586 103.038935,692.29724 19.4550176,612.961498 C12.8862387,606.738221 12.5285329,596.255752 18.6528895,589.56904 C24.7555669,582.893362 35.0531576,582.5182 41.632776,588.763545 C119.168214,662.361514 220.203838,702.901085 326.128107,702.901085 C556.24132,702.901085 743.451518,512.329791 743.451518,278.08522 C743.451518,211.571193 728.688025,147.76054 699.551263,88.4518314 C695.540622,80.2755052 698.792493,70.3337106 706.824614,66.2400304 C714.867574,62.1684186 724.634026,65.4786721 728.644667,73.6439641 C760.046898,137.598062 775.970225,206.374095 775.970225,278.074186 C775.970225,530.569288 574.159127,735.992586 326.128107,735.992586 Z M811.795001,140.897281 C809.399456,132.080972 800.391774,126.928011 791.785157,129.366565 C783.13518,131.805118 778.051423,140.919349 780.457807,149.735658 C791.861034,191.665535 797.638524,234.842275 797.638524,278.074186 C797.638524,475.641149 681.199872,650.665285 501.002876,723.965332 C492.656407,727.352824 488.602408,736.985662 491.940996,745.470945 C494.477455,751.948008 500.590972,755.876175 507.040516,755.876175 C509.056675,755.876175 511.094514,755.501013 513.078156,754.695518 C705.708138,676.341818 830.168071,489.257325 830.168071,278.074186 C830.168071,231.863047 823.978677,185.707079 811.795001,140.897281 Z M326.128107,791.163477 C231.531187,791.163477 139.232256,764.229048 59.192878,713.24011 C51.5726609,708.396106 49.2638327,698.178457 54.0332431,690.432464 C58.8026535,682.68647 68.8292549,680.325156 76.4386324,685.180195 C151.296697,732.847845 237.644704,758.049908 326.128107,758.049908 C361.324188,758.049908 396.390194,754.099673 430.361404,746.287474 C439.152294,744.224083 447.823949,749.862548 449.807591,758.789198 C451.780392,767.704814 446.284731,776.554225 437.526359,778.57348 C401.202963,786.926353 363.730572,791.163477 326.128107,791.163477 Z M326.128107,680.821694 C197.971881,680.821694 77.1757231,617.099315 2.98971211,510.343639 C-2.2024415,502.884535 -0.457270869,492.556544 6.87027785,487.271172 C14.2195057,481.996835 24.3545028,483.773338 29.5358169,491.221408 C97.6299901,589.215946 208.507943,647.719159 326.117267,647.719159 C419.272524,647.719159 507.842644,611.85808 575.514074,546.756428 C582.039494,540.47798 592.326245,540.764869 598.49396,547.418478 C604.661675,554.061054 604.379846,564.543523 597.843586,570.810936 C524.112837,641.749669 427.618993,680.821694 326.128107,680.821694 Z M620.942708,521.708843 C613.734394,516.257959 612.238534,505.874797 617.60412,498.548103 C664.463578,434.450561 689.231993,358.204389 689.231993,278.074186 C689.231993,268.926852 696.516184,261.522918 705.491347,261.522918 C714.46651,261.522918 721.750701,268.926852 721.750701,278.074186 C721.750701,365.387639 694.760173,448.463967 643.684124,518.310316 C640.51897,522.679851 635.608645,524.985994 630.644122,524.985994 C627.262177,524.985994 623.858552,523.915679 620.942708,521.708843 Z M699.88729,228.243836 C692.126158,228.243836 685.253871,222.572269 683.888086,214.517319 C673.612174,154.281739 648.334299,96.9481487 610.786032,48.7287894 C605.203653,41.5676077 606.396006,31.1513434 613.430886,25.4797757 C620.465767,19.8082081 630.69832,21.0109335 636.269859,28.1721152 C677.167553,80.7168724 704.710898,143.19239 715.919012,208.856785 C717.469071,217.860675 711.539826,226.434231 702.683898,228.001085 C701.751696,228.166597 700.808653,228.243836 699.88729,228.243836 Z M326.128107,625.650803 C184.66089,625.650803 59.8757708,538.988366 8.21438442,404.84586 C4.94083455,396.338509 9.05987081,386.72774 17.4171786,383.395418 C25.7636468,380.052062 35.2049115,384.24505 38.489301,392.763435 C85.229523,514.128362 198.145314,592.537234 326.128107,592.537234 C496.471936,592.537234 635.055827,451.465264 635.055827,278.063152 C635.055827,180.300332 591.44824,89.7538644 515.408663,29.6175926 C508.319585,24.01223 507.040516,13.6069998 512.536177,6.39064723 C518.053518,-0.814671212 528.264392,-2.12773843 535.34263,3.47762415 C619.37097,69.925446 667.563695,170.005443 667.563695,278.063152 C667.574534,469.726829 514.400583,625.650803 326.128107,625.650803 Z M262.792505,562.910465 C261.535115,562.910465 260.266885,562.76702 258.987816,562.458063 C136.1213,532.489235 45.7626518,421.827461 39.2589104,293.345489 C38.8036485,284.220223 45.6976144,276.430093 54.6619381,275.966658 C63.5395452,275.437017 71.268158,282.509925 71.7342594,291.646225 C77.5009102,405.574116 157.616166,503.701064 266.564675,530.260331 C275.301367,532.389928 280.677794,541.327612 278.585757,550.22116 C276.808068,557.80164 270.141733,562.910465 262.792505,562.910465 Z M326.128107,570.479911 C317.142104,570.479911 309.868753,563.064943 309.868753,553.928644 C309.868753,544.792344 317.142104,537.377376 326.128107,537.377376 C466.587244,537.377376 580.857981,421.055068 580.857981,278.074186 C580.857981,168.416522 512.633733,70.1681979 411.08865,33.600931 C402.622946,30.5554977 398.189562,21.0992069 401.181284,12.4704795 C404.173005,3.85278622 413.451676,-0.682261072 421.939058,2.3852405 C536.437427,43.6199649 613.376689,154.414149 613.376689,278.063152 C613.376689,439.305599 484.515891,570.479911 326.128107,570.479911 Z M250.966535,75.6852871 C251.139968,75.9390732 251.291722,76.2038934 251.465155,76.4466454 C252.375679,77.6935075 253.427117,78.7858912 254.61947,79.7127621 C254.814582,79.8562065 255.009694,79.9775824 255.204806,80.1099926 C256.473036,81.003761 257.827982,81.7540851 259.280484,82.2616573 C259.313003,82.2726915 262.423959,83.0230156 264.028216,83.0671524 C264.16913,83.0671524 264.711108,83.0781865 264.841183,83.0781865 C266.250327,83.045084 267.659471,82.8795713 269.068615,82.4492384 C287.777711,76.8107732 306.974588,73.9418869 326.117267,73.9418869 C403.403395,73.9418869 474.651883,119.943376 507.615013,191.157963 C510.389942,197.138488 516.23247,200.658391 522.324308,200.658391 C524.643976,200.658391 527.007002,200.150818 529.250793,199.069469 C537.36963,195.174404 540.849132,185.309849 537.022764,177.034215 C498.726566,94.2999459 415.933937,40.8393519 326.117267,40.8393519 C303.841953,40.8393519 281.53412,44.1606396 259.822463,50.7149415 C252.288962,52.9879823 247.595429,60.3146767 248.245803,67.9944648 C248.343359,69.0868484 248.538471,70.1902663 248.863658,71.2936841 C249.340599,72.9046741 250.08853,74.3391173 250.966535,75.6852871 Z M172.60729,371.522642 C177.224946,379.367943 187.219029,381.905804 194.915123,377.216278 C202.611217,372.515718 205.115157,362.35324 200.508341,354.507939 C186.958879,331.501677 179.804764,305.063786 179.804764,278.074186 C179.804764,195.935762 245.449194,129.112778 326.138947,129.112778 C406.828699,129.112778 472.47313,195.935762 472.47313,278.074186 C472.47313,360.212609 406.828699,427.035593 326.138947,427.035593 C291.528202,427.035593 257.947217,414.511801 231.585385,391.770359 C224.734777,385.867074 214.480545,386.738774 208.670536,393.70134 C202.860527,400.674941 203.716853,411.124308 210.567461,417.027593 C242.804339,444.833723 283.842948,460.138128 326.149786,460.138128 C424.768186,460.138128 505.002677,378.46314 505.002677,278.074186 C505.002677,177.685231 424.768186,96.0102435 326.149786,96.0102435 C227.531386,96.0102435 147.296896,177.685231 147.296896,278.074186 C147.275217,311.066379 156.033588,343.374453 172.60729,371.522642 Z M555.786058,237.556683 C554.257679,228.552793 545.824494,222.528132 537.001085,224.061883 C528.155996,225.617702 522.215912,234.180224 523.733452,243.184114 C525.673735,254.615523 526.660136,266.355888 526.660136,278.074186 C526.660136,390.633839 436.702552,482.206485 326.128107,482.206485 C215.553662,482.206485 125.596078,390.633839 125.596078,278.074186 C125.596078,238.693203 136.771674,200.349434 157.908834,167.202762 C162.79748,159.534008 160.651245,149.283256 153.128584,144.306842 C145.595083,139.341462 135.525124,141.526229 130.636478,149.172915 C106.063175,187.704265 93.077371,232.282346 93.077371,278.074186 C93.077371,408.88437 197.625015,515.30902 326.128107,515.30902 C454.631199,515.30902 559.178843,408.88437 559.178843,278.074186 C559.178843,264.480078 558.029849,250.841834 555.786058,237.556683 Z M326.128107,404.967236 C257.394399,404.967236 201.473062,348.04191 201.473062,278.074186 C201.473062,208.106461 257.394399,151.181135 326.128107,151.181135 C394.861815,151.181135 450.783152,208.106461 450.783152,278.074186 C450.783152,348.04191 394.861815,404.967236 326.128107,404.967236 Z" id="Combined-Shape"></path>
                <path d="M315.418402,344.680526 C276.569386,344.680526 244.961203,312.504862 244.961203,272.958367 C244.961203,233.411872 276.569386,201.236208 315.418402,201.236208 C354.267418,201.236208 385.875601,233.411872 385.875601,272.958367 C385.875601,312.504862 354.267418,344.680526 315.418402,344.680526 L315.418402,344.680526 Z" id="Shape"></path>
                <path d="M315.639576,179.405094 C264.834515,179.405094 223.503238,221.478415 223.503238,273.195609 C223.503238,324.912803 264.834515,366.986125 315.639576,366.986125 C366.444636,366.986125 407.775913,324.912803 407.775913,273.195609 C407.775913,221.478415 366.444636,179.405094 315.639576,179.405094 L315.639576,179.405094 Z" id="Shape"></path>
            </g>
        </g>
    </g>
</svg>